#!OML:ASF E:/inclinewalkrobotboard/Project1/Captureday1/Session1/subject1.ASF
:FULLY-SPECIFIED
:DEGREES
238
root 0 0 0 -0.9059997319429556 -2.788045285399569 -2.4830746772763117
lowerback 9.34169220963344 0.3509786558693013 0.6559901758169837
upperback -0.05797737599453079 0.6823369449034313 1.7423970972409477
thorax -5.197377462880192 0.3549924837294503 1.3681142434309663
lowerneck -16.446927908969087 -2.9610915540150935 -1.932386772762619
upperneck 19.89726104687404 -3.795196609187125 0.7030124957342405
head 9.053656161753981 -1.8422263795257772 0.0823483173618208
rclavicle -6.564836156107553E-16 -4.814449745529072E-16
rhumerus -23.540748631707395 -18.890665265507007 -74.79626063485574
rradius 27.04372338463271
rwrist 6.575320695013168
rhand -15.723313145695442 20.896917823265994
rfingers 7.125020000000031
rthumb 10.444472051313147 -8.570811962194863
lclavicle -6.532667902090695E-16 -3.2530917621600907E-16
lhumerus -29.503710636672395 1.4656888410546243 77.78879490352406
lradius 28.787442441577234
lwrist 3.037136501578347
lhand -23.65038817870359 23.328779213608616
lfingers 7.125020000000037
lthumb 2.76141579873876 52.98774940111857
rfemur -1.6424514625234963 -9.184689866653628 12.979806830346718
rtibia 39.03524753661202
rfoot -9.102256998198596 -8.328236547481124
rtoes 6.549659228538747
lfemur -14.398512924612398 -0.466174895866617 -20.821706000114162
ltibia 34.38326086701497
lfoot -9.231029492124486 -0.3535494543159885
ltoes -1.9782834924566455
239
root 0 0 0 -0.903212071171918 -2.788811147041068 -2.4833469791582514
lowerback 9.340107978752634 0.3509275368352228 0.6555915882345955
upperback -0.058992213018493445 0.6822398227877713 1.7425508552714768
thorax -5.197593610581874 0.3549587377905115 1.3685046695281455
lowerneck -16.4462083262472 -2.9608821091399276 -1.9322925788234087
upperneck 19.8978541720741 -3.7949695033239896 0.7032911529342467
head 9.053776763674943 -1.8421289255840843 0.08243976913067286
rclavicle -6.565000583325422E-16 -4.814709688154027E-16
rhumerus -23.542165467209742 -18.890495120001717 -74.79741188938974
rradius 27.04368408925813
rwrist 6.574642239291066
rhand -15.724078241420159 20.897524333946194
rfingers 7.125020000000031
rthumb 10.443725817774467 -8.570287481198713
lclavicle -6.53108818343306E-16 -3.2550741446432155E-16
lhumerus -29.498311066385305 1.4668006367993502 77.78045362091035
lradius 28.788874009785438
lwrist 3.033265177353556
lhand -23.644446897270775 23.3289394786668
lfingers 7.125020000000037
lthumb 2.7671816819713655 52.98723553599817
rfemur -1.6248138110573223 -9.20635061004839 12.958639944236069
rtibia 39.036644424755764
rfoot -9.104549009759788 -8.330996725495863
rtoes 6.5539053355364985
lfemur -14.402814541041721 -0.46492246345996513 -20.82268136287434
ltibia 34.38483644446268
lfoot -9.232441424554704 -0.35147248345227666
ltoes -1.9766559865826032
240
root 0 0 0 -0.9006427151199894 -2.7896014031571656 -2.4836388314363242
lowerback 9.338668753731671 0.35089403118864315 0.655241445432317
upperback -0.05992088405360363 0.6821648494219323 1.7426820337185278
thorax -5.19779896832313 0.35493501796923144 1.3688463730636844
lowerneck -16.445561056381948 -2.960672044361717 -1.9321933493318042
upperneck 19.898370840408504 -3.7947442673746106 0.7035543376810978
head 9.05387750127196 -1.8420253961827426 0.0825258283188608
rclavicle -6.56520185577239E-16 -4.814893993996753E-16
rhumerus -23.543984983891228 -18.890286689035474 -74.79879684499633
rradius 27.043633589568344
rwrist 6.5737823719678055
rhand -15.72500300118916 20.898263584494657
rfingers 7.125020000000031
rthumb 10.442828479053514 -8.56965045915021
lclavicle -6.52978913710767E-16 -3.256750588251669E-16
lhumerus -29.49371276439114 1.4677466369275587 77.77334944436151
lradius 28.790092029726317
lwrist 3.0299692272606897
lhand -23.63939194000379 23.329078604908787
lfingers 7.125020000000037
lthumb 2.772086906951966 52.98680091586318
rfemur -1.6094655068578163 -9.225182822629122 12.940237722021365
rtibia 39.03783518621109
rfoot -9.106545723092156 -8.333397478694149
rtoes 6.557589567903015
lfemur -14.406357350614343 -0.46388996403186766 -20.823484272817183
ltibia 34.38614040397354
lfoot -9.233595662150869 -0.3497638981297193
ltoes -1.975317105119597
241
root 0 0 0 -0.8982824560977036 -2.790399356018556 -2.483942508771002
lowerback 9.337364624259543 0.3508749086463373 0.654935023901825
upperback -0.06076818934630346 0.6821087815282187 1.742793448398095
thorax -5.197992468171526 0.35491967090022736 1.3691443655482556
lowerneck -16.444980280526178 -2.9604648409666177 -1.9320915430964667
upperneck 19.898820193355633 -3.7945238956292835 0.7038011574906275
head 9.053961398131582 -1.8419187967973656 0.08260625128875188
rclavicle -6.565421021700912E-16 -4.815020675838647E-16
rhumerus -23.546034883821648 -18.890057337508427 -74.80030765985909
rradius 27.04357647861954
rwrist 6.572819981251616
rhand -15.726014097789788 20.899075325795053
rfingers 7.125020000000031
rthumb 10.441850001949806 -8.568952199449186
lclavicle -6.528728279533864E-16 -3.258166255684412E-16
lhumerus -29.48980974477957 1.4685499948514007 77.76731650308044
lradius 28.791124415817627
lwrist 3.027170494705949
lhand -23.63510504318037 23.329199463554264
lfingers 7.1250200000000365
lthumb 2.7762463912327497 52.9864350862257
rfemur -1.5960463615600275 -9.241628151266582 12.924169421895371
rtibia 39.03884550653039
rfoot -9.108294817521148 -8.33549537086055
rtoes 6.560797655566471
lfemur -14.409300097411425 -0.46303162226192995 -20.82415081221702
ltibia 34.38722799957627
lfoot -9.234547619960859 -0.3483463323648728
ltoes -1.9742060076764414
242
root 0 0 0 -0.8961252588301996 -2.7911888446893443 -2.484250202218628
lowerback 9.336187769181631 0.3508671931554944 0.654667998060404
upperback -0.06153771093590166 0.6820684763220003 1.7428876195377379
thorax -5.198173134957599 0.35491111296292005 1.369403175317251
lowerneck -16.444461145299186 -2.960263755685948 -1.9319895569117191
upperneck 19.899209992181795 -3.794311309317995 0.7040307296409627
head 9.054031015901336 -1.8418118889718467 0.08268080701127911
rclavicle -6.56564478237602E-16 -4.815103457867029E-16
rhumerus -23.54819008578218 -18.889819580319053 -74.80186658344078
rradius 27.043516108558215
rwrist 6.571812240481535
rhand -15.727058614012433 20.89991604184546
rfingers 7.125020000000031
rthumb 10.44084083710706 -8.568229745820943
lclavicle -6.527869132226988E-16 -3.2593593949816364E-16
lhumerus -29.486509142798035 1.4692305961201697 77.76221030390313
lradius 28.791995763428982
lwrist 3.02480121081455
lhand -23.63148285587664 23.329304476062124
lfingers 7.1250200000000365
lthumb 2.779760547875906 52.98612880457994
rfemur -1.5842651536501364 -9.256044933035582 12.910085347185543
rtibia 39.03969827770209
rfoot -9.109834547720366 -8.337336159306433
rtoes 6.563599824071325
lfemur -14.411762500015236 -0.462312879497512 -20.824708202000945
ltibia 34.388141182985386
lfoot -9.235338949691299 -0.34716146331322406
ltoes -1.9732769094390203
